<?xml version="1.0" encoding="utf-8"?>
<!-- Generator: Adobe Illustrator 18.1.1, SVG Export Plug-In . SVG Version: 6.00 Build 0)  -->
<!DOCTYPE svg PUBLIC "-//W3C//DTD SVG 1.1//EN" "http://www.w3.org/Graphics/SVG/1.1/DTD/svg11.dtd">
<svg version="1.1" xmlns="http://www.w3.org/2000/svg" xmlns:xlink="http://www.w3.org/1999/xlink" x="0px" y="0px"
	 viewBox="0 0 1044.8 500" enable-background="new 0 0 1044.8 500" xml:space="preserve">
<g id="_x34_">
</g>
<g id="_x33_">
</g>
<g id="_x32_">
</g>
<g id="_x31_">
	<g>
		<path fill="#FFFFFF" d="M795.5,285c2.9-12.7,5.2-26,3-35.1c-8.8-36.9-40.5-45.6-50-47.4l-0.6-0.1c0,0-4-0.7-4.2-0.8
			c-9.5-1.8-42.1-5.2-63.7,25.9c-7.2,10.4-9.8,30.6-11.7,46.9c-0.2,2.1-0.7,5.9-1.5,10.5H795.5z"/>
		<path fill="#030303" d="M668.8,285c1-6,1.4-10.3,1.4-10.3c2-16,4.5-36,11.4-46c20.9-30.2,52.6-26.9,61.8-25.1
			c0.2,0,4.2,0.8,4.2,0.8c0.2,0,0.4,0.1,0.5,0.1c9.1,1.7,40,10.1,48.5,45.9c2.1,8.8-0.2,22-3.1,34.6h4c2.9-12.8,5.1-26.1,2.9-35.5
			c-9-38-41.7-47-51.5-48.8c-0.2,0-0.4-0.1-0.6-0.1c0,0-3.9-0.7-4.2-0.7c-9.8-1.8-43.4-5.4-65.7,26.7c-7.4,10.8-10,31.2-12,47.7
			c0,0-0.5,4.5-1.5,10.8H668.8z"/>
	</g>
	<g>
		<path fill="#FFFFFF" d="M235.9,279.4c0,0,0,0.1,0,0.1c-0.1,0.4-0.9,2.4-2.3,5.4h170.5c-5.6-7.4-8.5-13.2-8.8-13.8
			c0,0,0-0.1-0.1-0.1c-7.3-17.2-7-52.4-7-52.4l0-0.9c0.2-19.6,0.5-44.1-6.4-57.5c-20.6-40.4-60-41.6-71.6-41l-0.7,0
			c0,0-4.8,0.3-5.1,0.3c-11.6,0.6-50.5,5.9-66.8,48.2c-5.4,14.1-2.8,38.4-0.4,57.9C238.3,233.9,241.5,264.7,235.9,279.4z"/>
		<g>
			<path fill="#010101" d="M278.2,173c1.3,7.2-2.2,13.9-7.7,14.9c-5.6,1-11.1-4-12.4-11.2c-1.3-7.2,2.2-13.9,7.7-14.9
				C271.3,160.8,276.9,165.8,278.2,173z"/>
			<path fill="#010101" d="M349.9,160.1c1.3,7.2-2.2,13.9-7.7,14.9c-5.6,1-11.1-4-12.4-11.2c-1.3-7.2,2.2-13.9,7.7-14.9
				C343,147.8,348.6,152.9,349.9,160.1z"/>
			<g>
				<path fill="#EE4F7F" d="M350.6,181.6l-42.4,7.6l-42.4,7.6c0,0,3.2,39.5,41,36.8c1.3-0.1,5.9-0.5,9.2-1.1c3.3-0.6,7.7-1.8,9-2.2
					C361.4,219.7,350.6,181.6,350.6,181.6z"/>
				<g>
					<path fill="#231F20" d="M350.2,179.3c-22.4,4-44.8,8.1-67.2,12.1c-5.8,1.1-11.7,2.1-17.5,3.2c-1.3,0.2-2,1.4-1.9,2.7
						c1.4,16.3,11.9,32.9,28.2,37.4c13.7,3.7,31.4,0.9,43.7-6.1c10.1-5.7,16.5-15.3,18.3-26.7c1.1-6.7,0.9-14.2-0.9-20.7
						c-0.8-2.9-5.4-2.1-4.6,0.8c3.9,14,0.8,31-11.2,40c-5.4,4.1-11.8,6.1-18.3,7.6c-7.1,1.7-14.7,2.5-22,1.3
						c-10.4-1.6-18.7-8.3-23.6-17.5c-2.7-5.2-4.6-11.1-5.1-17c-0.6,0.9-1.2,1.8-1.9,2.7c22.4-4,44.8-8.1,67.2-12.1
						c5.8-1.1,11.7-2.1,17.5-3.2C354,183.3,353.1,178.7,350.2,179.3z"/>
				</g>
			</g>
		</g>
		<path fill="#030303" d="M233.8,278.5c0,0.1-0.1,0.2-0.1,0.2c-0.1,0.4-1,2.7-2.7,6.2h5.1c1.1-2.5,1.8-4.2,1.9-4.6
			c7.1-16.4,1.5-54.9,1.5-54.9c-2.2-19.2-5-43.2,0.2-56.8c15.8-41.1,53.6-46.2,64.8-46.8c0.3,0,5.1-0.3,5.1-0.3c0.2,0,0.4,0,0.7,0
			c11.1-0.6,49.4,0.4,69.5,39.7c6.6,13,6.4,37.1,6.2,56.4c0,0-2.6,33.8,7.2,54.4c0.4,0.9,3.1,6.1,7.9,12.8h5.8
			c-6.1-7.8-9.3-14.2-9.6-14.8c0-0.1-0.1-0.1-0.1-0.2l0,0.1c-7.3-16.8-6.7-51.3-6.7-51.3l0-0.8c0.2-19.9,0.5-44.6-6.7-58.6
			c-21.3-41.7-61.9-42.9-73.8-42.3c-0.3,0-0.5,0-0.7,0c0,0-4.8,0.3-5.1,0.3c-11.9,0.6-52.1,6.1-68.9,49.7
			c-5.6,14.6-2.8,39.2-0.5,58.9C235,226,239.8,262.5,233.8,278.5z"/>
	</g>
	<path fill="#E0A966" d="M326.6,225.5c0,0-0.4,7.1,4.6,8.3c5,1.2,6.7-0.4,6.7-0.4s3.7,10,15.4,0.4s6.7-20-0.4-24.6
		c0,0,6.7-5.4,14.2-2.1s14.2,7.1,19.1,8.3s11.2,17.5,7.1,29.6c-4.2,12.1-18.3,25.8-32,24.6c-13.7-1.2-13.7-2.5-21.6-3.7
		C331.6,264.6,312,247.6,326.6,225.5z"/>
	<path fill="#C68A4B" d="M376.6,257.6c-12.1,6.2-15.8,0-30.8,2.9c-7.7,1.5-14.4-1.1-19.1-3.9c4.1,5.4,9.5,8.8,12.9,9.3
		c7.9,1.2,7.9,2.5,21.6,3.7c13.5,1.2,27.3-11.9,31.8-23.8C388.4,249.8,382.4,254.5,376.6,257.6z"/>
	<g>
		<path fill="#936552" d="M335.8,249.2c0-4.6,4.6-7.5,7.1-5.4c2.5,2.1,3.7,6.7,0,7.1S335.8,249.2,335.8,249.2z"/>
		<path fill="#936552" d="M354.5,252.1c-2.5-4.2-2.9-9.2,2.1-11.7c5-2.5,9.6,3.3,8.3,9.6C363.7,256.3,354.5,252.1,354.5,252.1z"/>
	</g>
	<path fill="#FFFFFF" stroke="#000000" stroke-width="4.8" stroke-miterlimit="10" d="M393,261.8c-7.7,1.6-19.7-6.3-23.7-16.3
		c-4-10,5.7-17.2,15.9-14.8c10.3,2.5,18.9,7.1,19.5,16.4C405.2,256.3,397.6,260.8,393,261.8z"/>
	<line fill="none" stroke="#CDAE5C" stroke-width="4" stroke-miterlimit="10" x1="59.2" y1="285" x2="961.2" y2="285"/>
	<g>
		<ellipse fill="#C5E1E8" cx="526" cy="307.3" rx="79.3" ry="26"/>
		<ellipse fill="#9BC2C6" cx="526" cy="303.9" rx="54.9" ry="18"/>
		<path fill="#C68A4B" d="M525.4,306.7c0,0,11.2,4.2,24.6,2.5c13.3-1.7,14.2-2.5,23.3-2.5s13.7-5.4,10.4-7.9
			c-3.3-2.5-6.7-7.9-15-8.3c-8.3-0.4-38.3,1.2-38.3,1.2L525.4,306.7z"/>
		<path fill="#9B6633" d="M523.8,292.5c0,0,28.3,3.7,37.9,2.1c9.6-1.7,13.7-0.4,19.6-1.2s8.7-6.7,4.6-10.4
			c-4.2-3.7-15.8-7.9-15.8-7.9l-41.6-0.4L523.8,292.5z"/>
		<path fill="#E0A966" d="M511.7,268.4c0,0,3.3-8.7,12.9-12.5c9.6-3.7,18.7-0.8,28.3-2.1c9.6-1.2,14.6,4.6,22.5,7.5
			c7.9,2.9,14.6,7.9,12.9,10.8s-9.2,4.6-15,7.1c-5.8,2.5-17.1,3.3-25.4,0.8c-8.3-2.5-20.4-1.7-20.4-1.7L511.7,268.4z"/>
		<g>
			<path fill="#744F3C" d="M534.2,259.6c-3.3-1.7-2.1-6.7,2.1-8.7c4.2-2.1,11.2,2.1,7.9,5S534.2,259.6,534.2,259.6z"/>
			<path fill="#744F3C" d="M560.4,261.3c-3.7-2.9-7.9-5-5.4-8.7c2.5-3.7,7.9,2.5,11.2,5.8C569.5,261.7,564.1,264.2,560.4,261.3z"/>
		</g>
		<g>
			<path fill="#F7D188" d="M484.6,273.4c7.5-3.4,15.4-10.8,21.2-9.2c5.8,1.7,13.3,1.7,17.5,2.9c4.2,1.2,13.3,8.3,14.6,22.5
				c1.2,14.2-10.4,18.7-17.5,22.5c-7.1,3.7-21.2,3.3-29.6,0c-8.3-3.3-7.5-7.1-13.3-14.2C471.7,290.9,475.5,277.5,484.6,273.4z"/>
			<path fill="#E0A966" d="M530.8,300.4c-5.8,5.4-18.3,8.3-30.8,6.7c-7.3-1-15.2-4.2-20.6-6.7c3.9,5.5,4.1,8.8,11.5,11.7
				c8.3,3.3,22.5,3.7,29.6,0c6.3-3.3,16.1-7.3,17.4-18C535.9,295.8,533.5,298,530.8,300.4z"/>
			<g>
				<path fill="#936552" d="M499.6,292.9c-2.2-4.9-2.9-8.7,3.7-7.9s9.2,3.3,7.5,7.9C509.2,297.5,501.3,296.7,499.6,292.9z"/>
				<path fill="#936552" d="M483.4,289.6c-1.8-3.1-2.1-4.6,1.2-5c3.3-0.4,6.7,2.1,5.8,5C489.6,292.5,485,292.5,483.4,289.6z"/>
				<path fill="#936552" d="M516.9,284.6c-3.4-4.1-2.9-6.9,1.7-8.7S516.9,284.6,516.9,284.6z"/>
			</g>
		</g>
	</g>
	<g>
		<g>
			<path fill="#CEE9EA" d="M127.3,229.4l5.6,72.8c0,8.2,14.1,14.8,31.4,14.8s31.4-6.6,31.4-14.8l5.6-72.8H127.3z"/>
			<path fill="#F8F4E7" d="M135.4,240.8l4.2,54.7c0,6.3,10.7,11.4,23.9,11.4s23.9-5.1,23.9-11.4l4.2-54.7H135.4z"/>
			<ellipse fill="#C9E1E1" cx="164.4" cy="229.4" rx="37" ry="16.4"/>
			<ellipse fill="#F1E9DA" cx="163.5" cy="240.8" rx="28.1" ry="12.5"/>
			<ellipse fill="none" stroke="#F3FAFC" stroke-width="3" stroke-miterlimit="10" cx="164.4" cy="229.4" rx="37" ry="16.4"/>
		</g>
		<path fill="none" stroke="#B0D8D8" stroke-width="3" stroke-miterlimit="10" d="M201.4,229.4c0-9.1-16.6-16.4-37-16.4
			c-20.5,0-37,7.4-37,16.4l0,0l0,0c0,0.3,0,0.7,0.1,1l5.5,71.7c0,8.2,14.1,14.8,31.4,14.8s31.4-6.6,31.4-14.8l5.5-71.7
			C201.4,230.1,201.4,229.7,201.4,229.4z"/>
	</g>
	<g>
		<path fill="#F7D188" d="M234.7,284c-9.5-3-12-10.5-13-21s7.5-24,15.5-29s24-4.5,36,3s18.5,10,21,17s6,23.5-4.5,31.5
			s-25.5,13-34,10.5C247.2,293.5,234.7,284,234.7,284z"/>
		<path fill="#E0A966" d="M243.2,276.5c-11.7-6.8-17.5-17.1-20.1-23.4c-1.1,3.4-1.7,6.7-1.4,9.9c1,10.5,3.5,18,13,21
			c0,0,12.5,9.5,21,12c8.4,2.5,23.2-2.4,33.7-10.3C271.8,289.2,259,285.8,243.2,276.5z"/>
		<path fill="#936552" d="M271.3,263l-3.7-11.2c0,0,3.3-6.7,8.3-3.3s8.7,7.9,5.4,12.1C277.9,264.6,271.3,263,271.3,263z"/>
		<g>
			<path fill="#744F3C" d="M249.6,247.6c0-5.1,0-5.8,5.8-4.6c5.8,1.2,6.2,4.2,3.7,5.4C256.7,249.6,249.6,251.7,249.6,247.6z"/>
			<path fill="#744F3C" d="M272.1,277.1c0-3.6-2.1-5.8,4.6-5.8s4.6,1.2,2.5,3.3C277.1,276.7,272.1,278.8,272.1,277.1z"/>
		</g>
	</g>
	<path fill="#FFFFFF" stroke="#000000" stroke-width="4.8" stroke-miterlimit="10" d="M225.9,287.2c-1.4-7.7,6.6-19.6,16.7-23.4
		s17.1,6,14.5,16.2c-2.6,10.2-7.5,18.7-16.7,19.2C231.2,299.6,226.8,291.9,225.9,287.2z"/>
	<g>
		
			<ellipse transform="matrix(0.9492 0.3147 -0.3147 0.9492 109.1539 -208.8456)" fill="#010101" cx="701.3" cy="233.6" rx="6.2" ry="9.8"/>
		<g>
			<g>
				<path d="M770.9,243.1c-9.9-8.5-24.2-1.3-32.7,5.4c-1.8,1.4-0.2,4.3,1.8,4.3c10.3-0.2,22.2,2.1,30.3,8.8c2.4,2.1,6-1.5,3.5-3.5
					c-9.1-7.7-22.1-10.5-33.8-10.3c0.6,1.4,1.2,2.8,1.8,4.3c6.4-5,18.7-11.3,25.6-5.4C769.8,248.7,773.3,245.2,770.9,243.1
					L770.9,243.1z"/>
			</g>
		</g>
		<g>
			<path fill="#E0A966" d="M708.4,281c-9.6-3.7-14.3-9.2-16.5-14.3c-4.2,0.5-11.3,1.9-14.7,5.9c-5,5.8-3.8,10.8-6.3,13.3
				c-2.5,2.5-11.3,14.1-1.8,28.3c9.5,14.2,26.6,15.5,34.1,15.5c7.5,0,13.8-6.6,19.6-7.8c5.8-1.2,14.2-7,15.9-14.1
				c1.4-5.7,4.4-17.1,2.4-24.6C733,286,722.5,286.5,708.4,281z"/>
			<path fill="#C68A4B" d="M739.8,303.3c-5.2,5.4-14.6,10.4-20.2,11c-7.1,0.8-7.1,5-22.1,7.9c-10.4,2-21.8-3.6-27.8-7.2
				c9.7,13.5,26.2,14.7,33.6,14.7c7.5,0,13.7-6.7,19.6-7.9c5.8-1.2,14.2-7.1,15.8-14.2C739,306.4,739.4,304.9,739.8,303.3z"/>
			<path fill="#744F3C" d="M708.8,311.8c-3.3-3.3-0.4-11.7,5.8-12.1c6.2-0.4,11.7,1.7,10,5.8c-1.7,4.2-7.1,5.8-8.7,7.5
				C714.2,314.7,708.8,311.8,708.8,311.8z"/>
			<g>
				<path fill="#936552" d="M687.1,304.3c-2.9-1.2-5.8-5.8-1.2-8.3c4.6-2.5,5.8-3.7,7.5,1.2C695,302.3,687.1,304.3,687.1,304.3z"/>
				<path fill="#936552" d="M703.8,292.7c-5.5-2.1-5.4-6.2-2.1-7.9s12.5,0.8,11.2,3.7C711.7,291.4,707.1,293.9,703.8,292.7z"/>
			</g>
		</g>
		<path fill="#FFFFFF" stroke="#000000" stroke-width="4.8" stroke-miterlimit="10" d="M802,283.5c0,0-11.2-11.7-25.4-6.7
			c-14.2,5-19.1,22.5-8.7,29.1S796.2,296.4,802,283.5z"/>
		<g>
			<g>
				<path d="M688.5,251.6c-3.5,11.3,3,22.9,12.6,28.6c9.5,5.7,21.9,8.5,32.9,7c8.3-1.1,15.5-4.8,22.2-9.5c2.6-1.8,0.1-6.2-2.5-4.3
					c-5.5,3.8-11.3,7.2-18,8.5c-10.2,2.1-21.8-0.4-30.9-5.3c-8.4-4.5-14.5-13.9-11.5-23.7C694.2,249.9,689.4,248.6,688.5,251.6
					L688.5,251.6z"/>
			</g>
		</g>
	</g>
	<path fill="#936552" d="M367.8,191c-4.7-2.7-5.3-8.7-1.3-10.7s8.7,0.7,7.3,4.7C372.5,189,367.8,191,367.8,191z"/>
	<path fill="#F7D188" d="M302.5,215.3c0,0,2-7.3,6-5.7c4,1.7,4,7.3,4,7.3S306.8,219.3,302.5,215.3z"/>
	<path fill="#E0A966" d="M328.5,216.7c0,0-1.7-9,0.3-9.3c2-0.3,10-0.7,10-0.7s0.7,9.7-3.3,10.7S328.5,216.7,328.5,216.7z"/>
	<path fill="#F7D188" d="M315.5,207.7c0,0-1.3-3.3,1-4c2.3-0.7,4.3,2.7,4.3,2.7s-2,3-3.3,3.7S315.5,207.7,315.5,207.7z"/>
</g>
</svg>
