<?xml version="1.0" encoding="utf-8"?>
<!-- Generator: Adobe Illustrator 18.1.1, SVG Export Plug-In . SVG Version: 6.00 Build 0)  -->
<!DOCTYPE svg PUBLIC "-//W3C//DTD SVG 1.1//EN" "http://www.w3.org/Graphics/SVG/1.1/DTD/svg11.dtd">
<svg version="1.1" xmlns="http://www.w3.org/2000/svg" xmlns:xlink="http://www.w3.org/1999/xlink" x="0px" y="0px"
	 viewBox="0 0 1044.8 500" enable-background="new 0 0 1044.8 500" xml:space="preserve">
<g id="_x34_">
	<path fill="#9B6633" d="M459,304.5c0,0,4.5-15,21-22s14-2.5,23.5-4S532,287,532,287s3.5,26.5,1,27s-50,14.5-50,14.5l-30-1
		L459,304.5z"/>
	<path fill="#C68A4B" d="M830,296.5c0,0-16.5,25-15,25s52.5,1.5,52.5,1.5l-7.5-32L830,296.5z"/>
	<path fill="#C68A4B" d="M254,337.3c0,0-9,3.7-4,11.7s10.7,9,22.7,11.7c12,2.7,13,6.3,25.3,7c12.3,0.7,28.5-13.3,21-13.3
		c-1.7,0-50.3-19-50.3-19L254,337.3z"/>
	<path fill="#9B6633" d="M268.7,338.7c0,0-10.3,3.7-24.3,3.3c-14-0.3-19.7-2.7-18-8c1.7-5.3,11-10.3,11-10.3L270,330L268.7,338.7z"
		/>
	<path fill="#E0A966" d="M178.3,325.3c0,0-1.3,5.3,7,8c8.3,2.7,8,3.7,13.7,5.3c5.7,1.7,25-0.7,46-10.3L228.3,317L178.3,325.3z"/>
	<path fill="#E0A966" d="M268,332c0,0-4.3,7-0.7,13.3c3.7,6.3,13.3,7.7,19.3,12.3c6,4.7,20.7,7.3,32.3,4.7
		c11.7-2.7,19.3-8.3,24.7-14.3c5.3-6-15.3-41-15.3-41l-26.7-12L268,332z"/>
	<polygon fill="#9B6633" points="246.3,300.3 226.3,276.7 266,273.7 264.7,295 	"/>
	<path fill="#C68A4B" d="M411,344.7c0,0,3.3,10.3,13,13c9.7,2.7,19.3,3.3,32.7-0.3l-19.7-13L411,344.7z"/>
	<path fill="#9B6633" d="M499,353.3c0,0,15.7,3,21.7,7.7s16.3,9.7,33.7,8.7c17.3-1,18.3,0,29.7-2.3c11.3-2.3,18-12.7,18-12.7l-5.3-6
		L535,337.3l-36,9.7V353.3z"/>
	<path fill="#C68A4B" d="M537.7,340.3c0,0-2.3,6,6.7,8.3c9,2.3,16,6.7,26,6.7s31-4.3,31-4.3l-8.7-16.3l-53.7-5L537.7,340.3z"/>
	<path fill="#F7D188" d="M437,344.3c0,0-3,3.3,0.7,7c3.7,3.7,10.7,7.7,20.7,9c10,1.3,25.7,3,37-0.3c11.3-3.3,16.7-6.7,12.3-14.3
		L461,336L437,344.3z"/>
	<polygon fill="#F7D188" points="539,301.3 513.3,315.7 537,327 561,308.3 	"/>
	<path fill="#E0A966" d="M624.7,312.3l33.7-10c0,0,19.7-24.3,18.7-24.7c-1-0.3-59.3,3-59.3,3l-9.3,20.3L624.7,312.3z"/>
	<path fill="#C68A4B" d="M622.3,309.7c0,0,19.7-10.3,43-7.7l9,12.3L648,334.7l-32.7-4.7L622.3,309.7z"/>
	<path fill="#C68A4B" d="M714.7,364.3c0,0,6.7,8.7,21.7,12c15,3.3,30.3,3.3,43.3,0.7s26.7-10,26.7-10L775,328.3l-32,2.3L714.7,364.3
		z"/>
	<path fill="#F7D188" d="M699,368.7c0,0,17.7,0.3,31.3-6.3c13.7-6.7,3-14.3,3-14.3l-25,0.3L699,368.7z"/>
	<path fill="#9B6633" d="M951.3,307c0,0,17.3,2.3,25.3,6s11,10.7,1.3,14s-53.7,1.7-66,0.3c-12.3-1.3-33.3-2.7-33.3-2.7l-8.3-13.3
		L951.3,307z"/>
	<path fill="#F7D188" d="M843,274c0,0,19-7.7,36.3-10.7c17.3-3,26-1,39.3,2.7c13.3,3.7,21.7,8.3,17.7,13s-30.7,14.7-30.7,14.7
		l-31-1.3L843,274z"/>
	<path fill="#9B6633" d="M781,350c0,0-6,3-4,9s12,12,25.7,12.7c13.7,0.7,19.3,3,31.3,3.3s30-5.3,33.7-17l-14-15.7l-15.7,1L781,350z"
		/>
	<path fill="#E0A966" d="M774,333.3c0,0-7,4-6.3,9.7c0.7,5.7,10.3,10,27,13.3c16.7,3.3,40.3,8,50.3,2.3c10-5.7,0.3-16,0.3-16
		l-28.3-28l-28.3,3.7L774,333.3z"/>
</g>
<g id="_x33_">
	<path fill="#9B6633" d="M332,332c0,0-9.3,5.3-5.3,13s8.7,8.3,16.3,8.7c7.7,0.3,16,3.3,24,4c8,0.7,21-1.3,28-6.3s-0.7-14-4.3-15.7
		C387,334,332,332,332,332z"/>
	<path fill="#F7D188" d="M330,310.3c0,0-15,2-15,10.3c0,8.3,8.3,11,17,14.7c8.7,3.7,17.7,8,27,8.7s26,0,31.7-5.3
		c5.7-5.3-1-21.7-1-21.7l-29-11.3L330,310.3z"/>
	<path fill="#C68A4B" d="M232.3,316.3c0,0-5.3,6-1,10c4.3,4,23,5,35,6.3c12,1.3,36.7-2,42-13c5.3-11-2-19.7-13-22l-28.7-7.3
		c0,0-19.3,3.7-24.7,10C236.7,306.7,232.3,316.3,232.3,316.3z"/>
	<path fill="#F7D188" d="M154.3,265c0,0-7.7-4.7-25-4s-23,3.7-28,6.3c-5,2.7-7,11.3,11,19.3l48.7-8.3L154.3,265z"/>
	<path fill="#9B6633" d="M136.7,307.7c0,0-9.7,2.3-11,8.7c-1.3,6.3,3.7,7.3,10.3,9c6.7,1.7,18.7,5.3,27,5c8.3-0.3,19.7-3.3,30.7-8.7
		l-24-13.7L136.7,307.7z"/>
	<path fill="#9B6633" d="M115,283.7c0,0-11.3-3.3-22.7-4C81,279,68,286,63.7,291.3c-4.3,5.3,4,9.3,16.3,11.3s32.7,0.3,32.7,0.3
		L115,283.7z"/>
	<path fill="#E0A966" d="M470.3,320.7c-0.9,0.5-13.3,4.7-12,12c1.3,7.3,7,7.7,17,10c10,2.3,20.3,7.3,33.7,6.7
		c13.3-0.7,25-4,32.7-10.3c7.7-6.3-1-14.3-11-19s-15.3-5-23-6S481,314.3,470.3,320.7z"/>
	<path fill="#9B6633" d="M387.7,318.3c0,0-12,4-12.7,10.7s7.3,14,21,15.3c13.7,1.3,20.3,4,32.3,3.3c12-0.7,17-4,27-5.3
		c10-1.3,17.7-16.3,0-21.7l-32.7-8L387.7,318.3z"/>
	<path fill="#9B6633" d="M561.3,308.7c0,0-21.7,3-25.7,12.7c-4,9.7,18,16.7,27.3,18.7s21,3.3,34.3-0.7c13.3-4,36-12,38.3-19
		c2.3-7-16.3-18.7-26.3-17.7L561.3,308.7z"/>
	<path fill="#9B6633" d="M757.3,334c0,0-7.7,10.7-15.7,13.3c-8,2.7-8.7,5-19.7,5.3c-11,0.3-25.7-5-25.7-5l-10.3-33l39.3-3L757.3,334
		z"/>
	<path fill="#F7D188" d="M722,314c0,0-9,1.7-8.7,8.3c0.3,6.7,20,10.3,27,13c7,2.7,28.3,2.7,41.3-2c13-4.7,20-15,11.3-19.3
		s-22-14-22-14l-29.7-1.3L722,314z"/>
	<path fill="#C68A4B" d="M882.7,290.7c0,0,21.3-2.3,38-2.7c16.7-0.3,23.3,7,31.3,11.3c8,4.3,4,18.7-18,18.7s-54.7,1.3-74-5.3
		C840.7,306,863,292.7,882.7,290.7z"/>
	<path fill="#C68A4B" d="M886.7,325.3c0,0,13-1.3,25.7-2.3c12.7-1,28.3,2.7,38.7,9s8.3,15.3-2.7,20s-37,7.7-49.3,9.7
		s-32.3,2-41.3-3.7s2-13,6.7-17C869,337,886.7,325.3,886.7,325.3z"/>
	<g>
		<path fill="#E0A966" d="M804,284.3c0,0,15-4,22-7.7c7-3.7,14.3-6.3,34-5c19.7,1.3,29,3.7,35,6.3s6.7,14.3-16.7,20.3
			c-23.3,6-45.3,8-61,4.3C801.7,299,804,284.3,804,284.3z"/>
		<path fill="#744F3C" d="M846.2,291.1c-1.6,3-3.7,2.1-7.2,0c-3.5-2.1-4.1-0.9-4.8-4.7s-0.8-4.4,4.6-5.3c5.3-0.9,5.8,0.4,7.1,3.6
			S846.2,291.1,846.2,291.1z"/>
		<path fill="#936552" d="M859.3,283.5c-2.5-0.8-1-2,1.3-5c2.3-3,3.7-6.3,7.3-6s3,5.7,4,8S863.3,284.8,859.3,283.5z"/>
		<path fill="#936552" d="M847.7,277.5c1.3-3.3,2.3-5.7,4.7-4.3c2.3,1.3,5.7,4,3,5.7C852.7,280.5,847.7,277.5,847.7,277.5z"/>
	</g>
	<path fill="#9B6633" d="M774.7,299c0,0-12.7,4.3-11,11.7c1.7,7.3,15,10.7,23.3,10.3s18.7-3.3,29-3s16-7.7,21-12.7s1.3-14-11.7-16
		s-22.7-4.7-22.7-4.7L774.7,299z"/>
	<g>
		<path fill="#936552" d="M484.2,334.4c1.6-2,1.6-4.2,0.4-6.6c-1.2-2.4-3.9,0.5-3.9,0.5L484.2,334.4z"/>
		<path fill="#936552" d="M503.3,334.4c-3.9-1.8-7.4-5.6-8.3-8.1s0.4-5.1,4.6-4.2c4.2,0.9,8.8,2.6,9.3,5.7c0.5,3.1,1.1,7.3-1,7.6
			C505.8,335.7,503.3,334.4,503.3,334.4z"/>
	</g>
	<path fill="#744F3C" d="M512.7,332.3c0-4.3,1.3-6.7,5.7-8.3c4.3-1.7,7.7-3,10.3,4c2.7,7,2,10.7-2,10.3
		C522.7,338,512.7,339,512.7,332.3z"/>
</g>
<g id="_x32_">
	<path fill="#9B6633" d="M684,253.7c0,0,5.7-15.3,24.3-21c18.7-5.7,32.7-5.7,43,2.3c10.3,8,16,16.3,18.3,22c2.3,5.7-6,27-14,31.7
		c-8,4.7-67-0.3-67-0.3L684,253.7z"/>
	<g>
		<path fill="#F7D188" d="M657,247.3c0,0-2-18-13-25s-28.7-13.7-41-8c-12.3,5.7-24,4.3-28.3,19.3c-4.3,15-1,28,3.3,34.7l36,13
			L657,247.3z"/>
		<path fill="#E0A966" d="M657,247.3c0,0-2-18-13-25c-3.2-2.1-7.1-4.1-11.2-5.8c5.7,5.5,13.8,14.9,13.8,23.8c0,5.5,0,10.8,0,15.2
			L657,247.3z"/>
		<g>
			<path fill="#936552" d="M591.7,226.3c-4,0-2-2.7,0-6.7s4.7-5.3,6-5.7c1.3-0.3,2.3,4,2.7,6.3C600.7,222.7,596.3,226.3,591.7,226.3
				z"/>
			<path fill="#936552" d="M595,244.3c1.1-3.4,2.7-4.7,8-3.7s6.7,2.7,3,5C602.3,248,594,247.3,595,244.3z"/>
			<path fill="#936552" d="M619.3,233.7c-4-0.7-2.7-2.3-0.7-7.3s3.7-7.3,9.7-9c6-1.7,7.3,5,8,9.3c0.7,4.3,1.3,8.3-2.7,8.3
				S619.3,233.7,619.3,233.7z"/>
			<path fill="#936552" d="M603.3,256.7c3.5-4,3-7.3,8.3-7.3c5.3,0,10,3.7,9,7c-1,3.3-7,6-11,6.7S601,259.3,603.3,256.7z"/>
		</g>
	</g>
	<g>
		<path fill="#E0A966" d="M427.7,302.3c0,0,12-7.3,25.3-4.7c13.3,2.7,14,6.7,18.7,9c4.7,2.3,7,6,7,9.7c0,3.7-6.7,5.7-14.3,6.3
			c-7.7,0.7-39.7,3.3-43.7-11L427.7,302.3z"/>
		<path fill="#C68A4B" d="M478.7,316.3c0-0.5,0-0.9-0.1-1.4c-6.3,3.3-22,4.6-34.9,3.4c-9.7-0.9-17.2-6.3-20.8-9.6l-2.2,2.9
			c4,14.3,36,11.7,43.7,11C472,322,478.7,320,478.7,316.3z"/>
		<g>
			<path fill="#936552" d="M445.3,306c-2.5-0.8-1-2,1.3-5c2.3-3,3.7-6.3,7.3-6s3,5.7,4,8S449.3,307.3,445.3,306z"/>
			<path fill="#936552" d="M464.3,309.7c-2.7-2.3-1.7-3.7,2.7-5.3c4.3-1.7,5.3,4.3,2.7,5.7C467,311.3,464.3,309.7,464.3,309.7z"/>
		</g>
	</g>
	<g>
		<path fill="#F7D188" d="M521.7,291.3c0,0-14-3.7-27,4c-13,7.7-14.3,14.7-9.7,17c4.7,2.3,11.3,1.7,18.3,3.7s17.7-0.3,26-4
			c8.3-3.7,10.7-9.7,10.7-9.7L521.7,291.3z"/>
		<path fill="#E0A966" d="M529.3,312c8.3-3.7,10.7-9.7,10.7-9.7l-3.7-2.2c-9.9,6-23.9,11.3-31,11.6c-6.4,0.3-18.2-1.8-22.8-2.6
			c0.2,1.5,1,2.6,2.4,3.3c4.7,2.3,11.3,1.7,18.3,3.7S521,315.7,529.3,312z"/>
		<path fill="#936552" d="M503,300.7c-3.3-0.5-6.7-8.7-3-9.7s5.3,0.3,8.3,4S505,301,503,300.7z"/>
	</g>
	<g>
		<path fill="#F7D188" d="M378.3,298.7c0,0,11-3.3,15.7-7.3s15-2,23.3-1.7c8.3,0.3,15,4.7,19,7.7s2,9.7-5.3,12.7s-17.7,8-23.3,7.7
			c-5.7-0.3-7.7-0.3-15.3,2c-7.7,2.3-21.7,0.7-26-2.3c-4.3-3-4-7.7,0.3-11C371,303,378.3,298.7,378.3,298.7z"/>
		<path fill="#E0A966" d="M407.7,317.7c5,0.3,13.7-3.6,20.7-6.6c-0.7,0-1.4,0-2.3,0.2c-6.3,1.3-22.3,1-29,3s-9,1.7-18.3,1
			c-6.7-0.5-11-5.5-12.9-8.2c-3.4,3.3-3.4,7.4,0.6,10.2c4.3,3,18.3,4.7,26,2.3C400,317.3,402,317.3,407.7,317.7z"/>
		<path fill="#744F3C" d="M394.7,302.7c-2.3-1.3-0.7-4.3,1.7-8.3c2.3-4,2-5.3,5.3-4.7c3.3,0.7,3,3.3,3.7,6c0.7,2.7-1.7,3-2.7,5.3
			S394.7,302.7,394.7,302.7z"/>
		<g>
			<path fill="#936552" d="M391.3,307.3c2.6-4.5-4.7-4.7-7.7-3c-3,1.7-1,5.7-1,5.7S390,309.7,391.3,307.3z"/>
			<path fill="#936552" d="M411.7,304.7c-3-1,1.3-4.3,4.7-5.3c3.3-1,3,5.3,2,8.3s-4.7,2.7-6,1.7C411,308.3,411.7,304.7,411.7,304.7z
				"/>
		</g>
	</g>
	<g>
		<path fill="#E0A966" d="M159.3,276.7c0,0-22.3-0.7-37.3,3.7c-15,4.3-21.3,8.7-20.3,15.3c1,6.7,10.3,11.7,19.7,11.7
			s36.7,5.3,50.3,2.7c13.7-2.7,22-25.7,22-25.7L159.3,276.7z"/>
		<path fill="#C68A4B" d="M178.9,306.6c-5.3-0.5-14.2-1.3-17.2-0.9c-4.3,0.7-17,0.7-22.3-1.7c-5.3-2.3-9.7,0.3-21-2
			c-8.5-1.8-12.1-10.1-13.4-14.1c-2.6,2.3-3.7,4.8-3.3,7.8c1,6.7,10.3,11.7,19.7,11.7c9.3,0,36.7,5.3,50.3,2.7
			C174.3,309.5,176.7,308.2,178.9,306.6z"/>
		<path fill="#936552" d="M129,285.7c-5.3-0.3-6.7-3.7-6.7-3.7s2.3-6,4.3-7.7c2-1.7,5.3-0.3,5.3-0.3s4,5.3,4.3,8.3
			C136.7,285.3,129,285.7,129,285.7z"/>
		<g>
			<path fill="#744F3C" d="M146,294.7c-2.8-2.8-2.3-4.7,1-7.3c3.3-2.7,3.7,1.3,5.3,3.3C154,292.7,147,295.7,146,294.7z"/>
			<path fill="#744F3C" d="M121.7,294c1-3.7,4.7-5.3,8.7-3c4,2.3,9,7.7,6.3,8c-2.7,0.3-10,1.3-12.3,1C122,299.7,121.7,294,121.7,294
				z"/>
		</g>
	</g>
	<g>
		<path fill="#F7D188" d="M269.3,273c0,0-12,3.3-11.7,11.3c0.3,8,8,7.3,11.7,9.3c3.7,2,11.7,6.3,20.3,6.3c8.7,0,27.3-10,27.3-10
			l-3.3-16.7L285.3,263L269.3,273z"/>
		<path fill="#E0A966" d="M265.2,292.3c1.5,0.4,3,0.8,4.2,1.4c3.7,2,11.7,6.3,20.3,6.3c8.7,0,27.3-10,27.3-10l-1.3-6.6
			c-5.9,3.4-21.2,12-26,12.3c-6,0.3-7.3-2.3-13.7-3C272.6,292.3,268.4,292.2,265.2,292.3z"/>
		<g>
			<path fill="#744F3C" d="M279.3,283c-3.3-2.3-3.3-5.7-1.3-8s3.3,0.3,4,2.3S279.3,283,279.3,283z"/>
			<path fill="#744F3C" d="M288.3,288c0-4.7-1.3-6.3,3-7.3c4.3-1,7.7-3,8.3-0.7c0.7,2.3-0.7,4.3-3,7
				C294.3,289.7,288.3,290.7,288.3,288z"/>
		</g>
	</g>
	<path fill="#F7D188" d="M183.7,283.3c0,0-13.3,8.3-16.3,14.3s-4,11.3,3,17c7,5.7,19,12,24.7,12.3s26-6,33-6.7
		c7-0.7,17.7-5.7,21-13.3s-8.7-24-17.3-27.7l-16.3-2.7L183.7,283.3z"/>
	<path fill="#E0A966" d="M249,307c1.9-4.5-1.3-11.9-6.1-18c0.9,5,2,15.7-3.2,20.7c-7,6.7-21.7,6.7-28.7,9c-5,1.7-15.9,4.8-25.7,5.2
		c3.8,1.8,7.3,3,9.7,3.1c5.7,0.3,26-6,33-6.7S245.7,314.7,249,307z"/>
	<path fill="#744F3C" d="M219,303.7c-3.3-1-3-3-0.7-6.7c2.3-3.7,4.3-4.7,6.3-3s4.7,5,4.7,5s-0.7,6.3-4,6.7
		C222,306,219,303.7,219,303.7z"/>
	<g>
		<path fill="#936552" d="M207,303.7c1.9-2.4,4-3.7,1.3-6.7c-2.7-3-3.7-1.3-5.3,2.3C201.3,303,205.7,305.3,207,303.7z"/>
		<path fill="#936552" d="M193,312.7c-4.3-2.7-8-3.3-11-0.7s0.3,4.3,3.7,6.3c3.3,2,8.7,1.7,10-0.7C197,315.3,193,312.7,193,312.7z"
			/>
	</g>
	<g>
		<path fill="#604132" d="M729,247.7c-6-2.7-8-5-6-8.3c2-3.3,4.7-11.7,7-13.3s10,4.3,10,9.3s-4.7,7.3-6.3,10
			C732,248,729,247.7,729,247.7z"/>
		<path fill="#604132" d="M704.7,242c3.3,2.3,7,0.7,6.7-4.7c-0.3-5.3-2.3-8-5-8.3c-2.7-0.3-2.3,6-2.7,8.7
			C703.3,240.3,704.7,242,704.7,242z"/>
		<path fill="#604132" d="M712.7,264.3c-2.7-2.7-3.3-2-3.3,3.7s3.7,9.3,5.7,7S712.7,264.3,712.7,264.3z"/>
		<path fill="#604132" d="M724.3,258c-0.7-3.3,3-5,8-6.3c5-1.3,0.3,6.7,0.3,6.7L724.3,258z"/>
	</g>
	<g>
		<path fill="#E0A966" d="M718,286.3c0,0,8.7-12.3,24-16.3s27.3-6,38-3.3c10.7,2.7,19,9.3,25.3,17c6.3,7.7-5.7,15.3-16,16.3
			c-10.3,1-20,2.7-26.7,2.7c-6.7,0-31.7-4-31.7-4L718,286.3z"/>
		<path fill="#C68A4B" d="M731,298.7c0,0,25,4,31.7,4c6.7,0,16.3-1.7,26.7-2.7c10.3-1,22.3-8.7,16-16.3c-0.6-0.7-1.2-1.4-1.9-2.2
			c-0.4,3.6-2.9,9.6-15.1,12.5c-18,4.3-22,3-30.7,2.7c-6.7-0.3-22.4-0.3-29.1-0.3L731,298.7z"/>
		<path fill="#936552" d="M756,292.7c-2.1-3.2-3.3-6.3-0.7-9.7c2.7-3.3,5.7-1.3,8.7-0.7c3,0.7-0.3,4-2.3,7.3
			C759.7,293,756.7,293.7,756,292.7z"/>
		<g>
			<path fill="#744F3C" d="M750.3,273.3c-3.3-2.7-2-5.3,1-9.7c3-4.3,1.7-5.3,6.3-5.7c4.7-0.3,5.3-0.3,5.7,7c0.3,7.3-1.3,7.7-5.3,9
				S750.3,273.3,750.3,273.3z"/>
			<path fill="#744F3C" d="M777,279.3c-5.3-2.7-6-5.7-2.7-7.7c3.3-2,4.7-0.7,6.3,2C782.3,276.3,777,279.3,777,279.3z"/>
		</g>
	</g>
	<g>
		<path fill="#F7D188" d="M672.7,315.3c-8.3-1.3-11.7-2.7-17-5.3c-5.3-2.7-6-9.3-2-14.3s14-16.3,25.3-19.3s33-1,43.7,4.7
			c10.7,5.7,11.7,11,17.3,14s3,16-9.3,18.7C718.3,316.3,690,318,672.7,315.3z"/>
		<path fill="#E0A966" d="M740,295c-0.8-0.4-1.4-0.9-2.1-1.3c-1.4,4.7-5.7,11.7-18.3,14.3c-19.3,4-27-0.7-36.7,1
			c-7.3,1.3-21,0.4-29.9-0.9c0.7,0.8,1.5,1.4,2.5,1.9c5.3,2.7,8.7,4.1,17,5.3c17.3,2.7,45.7,1,58-1.7C743,311,745.7,298,740,295z"/>
		<g>
			<path fill="#744F3C" d="M687,296.7c-4-1.3,0.3-5.3,1.7-8.3c1.3-3,5.3-5.3,7.3-3.7c2,1.7,2.3,6,3.3,8.7c1,2.7-4.7,5.3-6.3,6
				C691.3,300,687,296.7,687,296.7z"/>
			<path fill="#744F3C" d="M667.7,290c-3-2.3-0.7-4.7,2-6c2.7-1.3,7.7,1.3,7.3,3.7c-0.3,2.3-3.3,10-6,8.7
				C668.3,295,667.7,290,667.7,290z"/>
		</g>
		<path fill="#936552" d="M673.7,302c1.3-3.3,2.3-5.7,4.7-4.3c2.3,1.3,5.7,4,3,5.7C678.7,305,673.7,302,673.7,302z"/>
	</g>
	<g>
		<path fill="#F7D188" d="M814,336.7c-6.3-2-10.7-7.7-4-13.3c6.7-5.7,11.3-7.3,18-9.3s22.7-5.7,38-2.3c15.3,3.3,20,11.6,28,15
			c4.7,2,7.3,12.7-4.7,16c-12,3.3-23.7,6-41,4C831,344.7,814,336.7,814,336.7z"/>
		<path fill="#E0A966" d="M894.2,326.8c-6.3,8.7-23.1,14.3-39.9,14.9c-15.2,0.5-36.4-4.9-44.8-7.3c1.2,1,2.8,1.8,4.4,2.3
			c0,0,17,8,34.3,10c17.3,2,29-0.7,41-4C901.1,339.4,898.8,329,894.2,326.8z"/>
		<g>
			<path fill="#936552" d="M825,328.7c-4.3-3-6-4-2.7-6.7c3.3-2.7,6-0.3,10.3,0.7c4.3,1,3.3,3.3,1.7,5.7
				C832.7,330.7,825,328.7,825,328.7z"/>
			<path fill="#936552" d="M843.7,316.7c-3.3-1.4-4.7-5.7-3.3-8c1.3-2.3,8-1,10,2S846,317.7,843.7,316.7z"/>
		</g>
		<path fill="#744F3C" d="M862.7,329.3c-4-2.7-5-7,1.3-12s6.7,1,12.7,4.3c6,3.3,0.3,9.7-4.3,10C867.7,332,862.7,329.3,862.7,329.3z"
			/>
	</g>
	<g>
		<path fill="#F7D188" d="M646.7,331.7c0,0-10.3-0.3-21-2c-10.7-1.7-17.3-2-21.7,1s-13.7,9-14.7,12.7c-1,3.7,1.3,8.7,13,13.3
			c11.7,4.7,27.7,13.3,45.3,8.3C665.3,360,646.7,331.7,646.7,331.7z"/>
		<path fill="#E0A966" d="M655,357.5c-18.7,3.9-37.2-0.4-45.7-2.5c-7-1.7-16-8-20.1-11c-0.6,3.6,2.2,8.3,13.1,12.7
			c11.7,4.7,27.7,13.3,45.3,8.3C652.1,363.7,654.3,361,655,357.5z"/>
		<g>
			<path fill="#936552" d="M634.7,350.7c-3-2,0-7,2.7-9.7c2.7-2.7,4.7,3,5.3,6c0.7,3-4,6-4,6L634.7,350.7z"/>
			<path fill="#936552" d="M614.3,339.3c-2.7-1.3-0.7-4.3,2-7.3c2.7-3,3.3-9.3,6.7-6.7c3.3,2.7,3,9.7,3.3,12c0.3,2.3-5,3.3-7.3,3.3
				S614.3,339.3,614.3,339.3z"/>
		</g>
	</g>
</g>
<g id="_x31_">
	<g>
		<path fill="#E0A966" d="M451.3,146.3c0,0,6.3-14,20.7-17.3c14.3-3.3,21-4,29.3,0.3c8.3,4.3-1.3,13.3-6,18
			c-4.7,4.7-2.7,7.3-9.3,9.3s-25.7,10-25.7,10L451.3,146.3z"/>
		<path fill="#936552" d="M477.3,139.7c0,0-2-5.3,2.3-6.7c4.3-1.3,8.3-2.7,7.3-0.3C486,135,479.7,140.3,477.3,139.7z"/>
		<path fill="#936552" d="M463,138.3c-3.9,1-10-2.3-7-5c3-2.7,6.3-9.3,10-9.7c3.7-0.3,4,9,3.7,11.7C469.3,138,464.3,138,463,138.3z"
			/>
		<path fill="#C68A4B" d="M482,153.3c-6.5,2.4-18.7,2.7-26.4,2.5l4.8,10.8c0,0,19-8,25.7-10s4.7-4.7,9.3-9.3
			c0.8-0.8,1.9-1.8,2.9-2.9C493.7,147.2,488,151.1,482,153.3z"/>
	</g>
	<g>
		<path fill="#E0A966" d="M277.7,179.7c-6-6-10-10.3-14.7-14c-4.7-3.7-17.8-1.6-19.3,10.3c-0.7,5.3,5.3,9.3,6.3,14.3
			s0.7,9.7,7.3,15.3c6.7,5.7,17.3,13.7,25.3,9.3s9-14.3,5.7-20.7C285,188,279.3,181.3,277.7,179.7z"/>
		<path fill="#C68A4B" d="M267,207.3c-10.7-5-9.3-14.3-14-20.7c-3.4-4.6-6.7-11.2-8.3-14.5c-0.5,1.2-0.8,2.4-1,3.9
			c-0.7,5.3,5.3,9.3,6.3,14.3s0.7,9.7,7.3,15.3c6.7,5.7,17.3,13.7,25.3,9.3c3.9-2.1,6.1-5.6,7-9.3C282.4,211,276.4,211.7,267,207.3z
			"/>
		<g>
			<path fill="#936552" d="M264.3,186c2.3-1,3.3-3,3.3-5.7c0-2.7-3.7-1.3-3.7-1.3L264.3,186z"/>
			<path fill="#936552" d="M281.3,194.7c-2.7-3.3-4-8.3-3.7-11c0.3-2.7,2.7-4.3,6-1.7c3.3,2.7,6.7,6.3,5.7,9.3s-2.3,7-4.3,6.3
				C283,197,281.3,194.7,281.3,194.7z"/>
		</g>
	</g>
	<path fill="#9B6633" d="M560.3,104.3c-2.7,0-2.3-3,0.7-6.3s6-2.3,6.7,0c0.7,2.3,1,5.7-1.7,6S560.3,104.3,560.3,104.3z"/>
	<path fill="#744F3C" d="M574.7,113.3c0-4.3,1.3-6.7,5.7-8.3c4.3-1.7,7.7-3,10.3,4c2.7,7,2,10.7-2,10.3
		C584.7,119,574.7,120,574.7,113.3z"/>
	<path fill="#F7D188" d="M636.7,124.7c-4.3,0.3-5.3-3.3-2.3-5c3-1.7,5.3-2.3,8.3-4c3-1.7,6.3,2.7,5.3,5
		C647,123,636.7,124.7,636.7,124.7z"/>
	<g>
		<g>
			<path fill="#FFFFFF" d="M474.1,185.8c1,0.8,20.6,21,45.6,16l1.4-0.3l0.4,1.4c0.1,0.3,0.1,0.6,0.1,1c-0.1,2.6-3.2,7.4-17.5,15.5
				c-1.4,0.8-1.1,2.9-0.6,6.4c0.2,1.3,0.4,2.7,0.5,4.1c0.1,1.1-0.4,1.8-1.4,2.2l-0.8-1.5l0.6,1.5c-0.8,0.3-2,0.6-3.5,0.9
				c-2.8,0.5-5.9,1.1-9.6,2.5c-2.2,0.8-4.3,1.9-6.4,3.1c-4.3,2.5-7.2,6.8-10.2,11.3c-4.4,6.5-8.9,13.2-18.4,16.8
				c-0.4,0.2-0.8,0.3-1.3,0.4l0,0c-0.3,0.1-0.5,0.2-0.8,0.3c-9.6,3.6-17.4,1.6-24.9-0.4c-5.2-1.4-10.2-2.6-15.1-1.7
				c-2.4,0.5-4.7,1.1-6.9,2c-3.9,1.5-6.7,3.2-8.8,4.5c-1.2,0.8-2.3,1.4-3.2,1.8c-0.9,0.3-1.9,0.5-2.8-0.7c-0.9-1.1-1.6-2.3-2.3-3.4
				c-1.9-3-3.2-4.7-4.7-4.4c-16.1,3.4-21.6,1.9-23.4,0c-0.2-0.3-0.4-0.5-0.6-0.8l-0.6-1.3l1.3-0.7c22.1-12.8,23.6-40.9,23.6-42.1
				c0.3-3.6-0.3-6.3-2.1-8.1c-3.1-3.3-9.1-2.9-13-2.7c-0.9,0.1-1.8,0.1-2.6,0.1c-7.8-0.1-9.4-2.6-9.7-4.1c-0.4-2.5,2.1-5.4,4.7-6.3
				c0.7-0.3,1.4-0.4,2-0.3c3.7,0.3,6.8,0,9.3-1c3.6-1.4,4.5-3.5,4.5-3.6l0-0.1l0-0.1c-0.7-1.6-1.4-3.2-2.2-4.9
				c-4.9-10.8-11-24.3-10.4-33.4c1.6-27.5,23.4-37.8,30-40.3l2.7-1c6.6-2.5,29.8-9.2,49.2,10.3c6.5,6.5,10.8,20.6,14.3,32l0.1,0.4
				C461,162.7,469.2,181.6,474.1,185.8z"/>
			<path d="M394.8,116.8c0.2-0.1,2.3-0.9,2.3-0.9c0.1,0,0.2-0.1,0.4-0.1c6.3-2.4,28.7-9,47.4,9.9c6.2,6.2,10.5,20.1,13.9,31.3
				c0,0,4.2,20.2,14.1,29.9c1.3,1.3,21.3,21.6,47.1,16.4c0,0.1,0.1,0.3,0,0.4c0,1.1-1.4,5.5-16.7,14.1c-2.4,1.4-1.9,4.4-1.4,8
				c0.2,1.3,0.4,2.6,0.5,4c0,0.4,0,0.4-0.4,0.6c-0.1,0-0.1,0-0.2,0.1l0,0c-0.7,0.3-1.9,0.5-3.2,0.8c-2.5,0.4-5.8,1.1-9.9,2.6
				c-2.3,0.9-4.5,1.9-6.7,3.2c-4.7,2.7-7.6,7.1-10.8,11.8c-4.2,6.2-8.6,12.7-17.7,16.1c-0.4,0.1-0.8,0.3-1.2,0.4l-0.1,0l-0.1,0
				c-0.2,0.1-0.4,0.2-0.7,0.3c-9.1,3.4-16.6,1.5-23.9-0.4c-5.4-1.4-10.6-2.7-15.9-1.7c-2.5,0.5-4.9,1.2-7.1,2c-4,1.5-7,3.3-9.1,4.7
				c-1.2,0.7-2.2,1.4-2.9,1.6c-0.6,0.2-0.6,0.2-0.9-0.2c-0.8-1.1-1.6-2.2-2.3-3.3c-2-3-3.7-5.7-6.4-5.1c-17.2,3.6-21.1,1.3-21.9,0.5
				c-0.1-0.1-0.2-0.2-0.2-0.4c22.8-13.2,24.4-41.6,24.4-43.4c0.4-4-0.5-7.1-2.5-9.3c-3.6-3.8-10-3.5-14.3-3.2
				c-1,0.1-1.8,0.1-2.5,0.1c-5.6-0.1-7.9-1.5-8.1-2.7c-0.3-1.5,1.6-3.7,3.6-4.5c0.5-0.2,0.9-0.3,1.3-0.2c3.9,0.3,7.3-0.1,10-1.1
				c4.2-1.6,5.4-4.3,5.5-4.6l0.3-0.7l-0.3-0.7c-0.7-1.6-1.4-3.2-2.2-4.9c-4.8-10.6-10.8-23.9-10.3-32.6
				C367.4,129.2,388.5,119.2,394.8,116.8 M463.3,160.4c-0.4-1.2-0.8-2.5-1.2-3.9l-0.2-0.5c-3.5-11.5-8-25.8-14.7-32.6
				c-20-20.2-44-13.3-50.9-10.7l-0.4,0.2l-2.3,0.9l0,0c-6.9,2.6-29.4,13.3-31,41.7c-0.6,9.6,5.6,23.2,10.6,34.1
				c0.7,1.4,1.3,2.8,1.9,4.2c-0.4,0.6-1.4,1.5-3.3,2.2c-2.2,0.8-5.1,1.1-8.6,0.9c-0.8-0.1-1.7,0.1-2.7,0.4c-3.2,1.2-6.3,4.8-5.7,8.1
				c0.4,2.4,2.7,5.3,11.3,5.4c0.8,0,1.7,0,2.7-0.1c3.6-0.2,9.1-0.5,11.7,2.2c1.4,1.4,1.9,3.7,1.6,6.7l0,0.1l0,0.1
				c0,1.2-1.5,28.4-22.8,40.7l-2.5,1.5l1.2,2.7c0.2,0.5,0.5,0.9,0.9,1.3c3,3.2,11.4,3.3,24.9,0.5c0.7,0.2,2.1,2.4,3,3.7
				c0.7,1.1,1.5,2.3,2.4,3.5c1.2,1.6,2.7,2,4.7,1.3c1-0.4,2.2-1.1,3.5-1.9c2-1.3,4.8-3,8.5-4.4c2.1-0.8,4.3-1.4,6.6-1.9
				c4.6-0.9,9.1,0.3,14.4,1.6c7.4,1.9,15.9,4.1,25.9,0.3c0.3-0.1,0.6-0.2,0.8-0.3c0.4-0.1,0.8-0.3,1.2-0.4
				c10.1-3.8,14.9-11,19.2-17.4c3.1-4.5,5.7-8.4,9.7-10.8c2-1.2,4.1-2.2,6.2-3c3.6-1.4,6.6-2,9.3-2.4c1.7-0.3,2.9-0.6,3.8-0.9l0.1,0
				l0.1,0c1.7-0.7,2.6-2,2.5-3.9c-0.1-1.5-0.3-2.8-0.5-4.2c-0.2-1.5-0.6-4.1-0.2-4.7c12-6.8,18.2-12.5,18.4-16.8c0-0.5,0-1-0.2-1.5
				l-0.9-2.8l-2.9,0.6c-24.2,4.9-43.3-14.6-44.1-15.4l-0.1-0.1l-0.1-0.1C467.9,178.4,463.3,160.4,463.3,160.4z"/>
			<path d="M448.4,182.8c0,0-6.2-1.6-11-0.2c-1,0.1-1.8,0.1-2.5,0.1c-5.6-0.1-7.9-1.5-8.1-2.7c-0.3-1.5,1.6-3.7,3.6-4.5
				c0.5-0.2,0.9-0.3,1.3-0.2c3.9,0.3,7.3-0.1,10-1.1c0,0,2.7-0.7,4.3-3.4c0,0-1-2.1-2.2-1.9c-0.4,0.6-1.4,1.5-3.3,2.2
				c-2.2,0.8-5.1,1.1-8.6,0.9c-0.8-0.1-1.7,0.1-2.7,0.4c-3.2,1.2-6.3,4.8-5.7,8.1c0.4,2.4,2.7,5.3,11.3,5.4c0.8,0,1.7,0,2.7-0.1
				c3.6-0.2,9.1-0.5,11.7,2.2C449.9,184.3,448.4,182.8,448.4,182.8z"/>
		</g>
		<path fill="none" stroke="#000000" stroke-width="3" stroke-miterlimit="10" d="M353.7,150.4c0,0,10.9-3.4,22.3,9.6
			c0,0-9.3,0.5-14.8,5.2"/>
		<path fill="none" stroke="#000000" stroke-width="3" stroke-miterlimit="10" d="M425,132c0,0-15.8,1.5-19,22c0,0,9.2-6.8,21.5-6.2
			"/>
		<path fill="#EE4F7F" stroke="#231F20" stroke-width="2.3" stroke-miterlimit="10" d="M415.2,157.5L373,169.3
			c0,0,2.6,13.4,10.6,20.9c7.9,7.4,29.8,2.9,33.8-7.2C421.5,172.9,415.2,157.5,415.2,157.5z"/>
	</g>
	<g>
		<path fill="#E0A966" d="M226.3,265c-1.7,0-11.3-8.3-21-12.7c-9.7-4.3-25.7-5.7-35.3-0.3c-9.7,5.3-16,8.3-16.7,14
			c-0.7,5.7,2,12.7,14.7,15.7s30.3,7,39,3.7c8.7-3.3,19-13,19-13L226.3,265z"/>
		<path fill="#C68A4B" d="M215.5,280.7c-4,0.3-9.4,0.8-12.8,1.3c-6,1-12-1-30-5.3c-12-2.9-16-10.4-17.3-15.1c-1.1,1.3-1.8,2.8-2,4.4
			c-0.7,5.7,2,12.7,14.7,15.7s30.3,7,39,3.7C209.8,284.3,212.8,282.5,215.5,280.7z"/>
		<path fill="#744F3C" d="M189.7,269.3c-4,0-7,1.3-5,4c2,2.7,3.7,8,7,5.7C195,276.7,189.7,269.3,189.7,269.3z"/>
		<g>
			<path fill="#936552" d="M177.3,256.7c0,0-2.3,5-5,3.3c-2.7-1.7-3.7-4-1.3-6.3C173.3,251.3,177.3,256.7,177.3,256.7z"/>
			<path fill="#936552" d="M196.3,264.7c-5.5,0.4-5.3-1-6.7-5.3c-1.3-4.3-4-10-1.3-12.3c2.7-2.3,5.7-4.3,9.3,0.3c3.7,4.7,4.3,8,6,11
				C205.3,261.3,201,264.3,196.3,264.7z"/>
		</g>
	</g>
	<path fill="#C68A4B" d="M274,245c0,0-13.7-0.3-25.7,3.3c-12,3.7-17.3,9.7-24,14c-6.7,4.3-10,10.3-6.7,15.7c3.3,5.3,10.3,4.3,16,3.7
		c5.7-0.7,15-1,22.3-3.3c7.3-2.3,22.3-6.3,33-15.7L274,245z"/>
	<g>
		<path fill="#744F3C" d="M235.7,247c0,0-3,8-4,11s4.3,2.7,9,3c4.7,0.3,4.3-1.7,6-6.7c1.7-5-0.7-8.3-4-8.7
			C239.3,245.3,235.7,247,235.7,247z"/>
		<path fill="#744F3C" d="M255,257.3c-3.3,1.3-4.7-0.3-2.3-4.7c2.3-4.3,6.7-0.7,6,1.3C258,256,255,257.3,255,257.3z"/>
	</g>
	<g>
		<path fill="#E0A966" d="M303.7,284.7c3.3-4.8,13-10.3,20.7-10.7c7.7-0.3,26-3,33-0.3c7,2.7,17,10,22,17s-2.7,17-16.3,18.7
			c-13.7,1.7-25,2-31.7,2.3c-6.7,0.3-10.7-6-15.3-8.3C311.3,301,294.7,297.7,303.7,284.7z"/>
		<path fill="#C68A4B" d="M337.7,306c-10.3,1.3-10-5.3-18.7-6.3c-6.8-0.8-14.8-5.6-17.9-7.7c0.4,7.1,11.3,9.6,14.9,11.4
			c4.7,2.3,8.7,8.7,15.3,8.3c6.7-0.3,18-0.7,31.7-2.3c10.5-1.3,17.4-7.5,17.8-13.4C364.9,305.9,347.4,304.7,337.7,306z"/>
		<path fill="#936552" d="M354.3,295c-4.3-3-3.3-4.7-0.3-7.3c3-2.7,3-4,6.7-4.3c3.7-0.3,4,3,5.3,8s-1,6.3-4.3,6
			C358.3,297,354.3,295,354.3,295z"/>
		<g>
			<path fill="#744F3C" d="M337.7,288.7c2.7-2.7,3.7-3,0-5c-3.7-2-4.3-2.7-7.7-1.7s0.7,4.3,2.3,5.3C334,288.3,336.3,290,337.7,288.7
				z"/>
			<path fill="#744F3C" d="M347,279c-3,1.3-3.7,1.7-4.3-3c-0.7-4.7-2.3-8.3,0.7-8.7c3-0.3,4.3,3.3,5.3,6C349.7,276,347,279,347,279z
				"/>
		</g>
	</g>
	<g>
		<path fill="#E0A966" d="M271,242.7c3.4-6.6,11.7-10.7,19.7-10.7s20,6,31,8.3c11,2.3,15.7,13,18,20.7c2.3,7.7-8.3,17.7-23.7,17
			s-24-9.7-32.7-11.7c-8.7-2-5-5.7-9.3-8.3C269.7,255.3,267.3,249.7,271,242.7z"/>
		<path fill="#C68A4B" d="M337.7,269.3c-10.2,3.6-24.9,4.4-31,0c-7-5-17-7.7-25-13.3c-5.7-4.1-8-11.9-8.9-16
			c-0.7,0.8-1.3,1.7-1.8,2.7c-3.7,7-1.3,12.7,3,15.3c4.3,2.7,0.7,6.3,9.3,8.3c8.7,2,17.3,11,32.7,11.7
			C326,278.4,334,274.4,337.7,269.3z"/>
		<g>
			<path fill="#936552" d="M302,239.3c-6,2-8-1.7-6-4.3s2.3-7.3,5.3-8s3.3,4.3,5,7C308,236.7,304,238.7,302,239.3z"/>
			<path fill="#936552" d="M316,255.7c-4.3-0.3-2.7-0.7-1-4.3c1.7-3.7-1-7,3-6.3s5,6,7,8.7S316,255.7,316,255.7z"/>
		</g>
	</g>
	<g>
		<path fill="#E0A966" d="M673.2,155.8c-8.6,5.1-16.2,12.8-16.8,24.2s0,17.8,10.2,24.5s16.2,9.8,24.5,10.8s24-10.2,28.8-21.8
			c5.7-13.8,2.8-23.5,0.5-31.8S695.5,142.5,673.2,155.8z"/>
		<path fill="#936552" d="M668,169c-4.6,2.3-9.3,3-5.7,5.3c3.7,2.3,6.7,5.3,8.3,1.3C672.3,171.7,671.3,167.3,668,169z"/>
		<path fill="#744F3C" d="M686.7,165.3c-3,0.2-6,1-7,5s-3.3,7.7-0.3,8.3c3,0.7,9,0.7,12.7-1C695.7,176,692.7,165,686.7,165.3z"/>
		<path fill="#744F3C" d="M702,160.7c-3.1-0.3-3.7-0.7,0.3-3c4-2.3,4-3,6.3-1C711,158.7,706,161,702,160.7z"/>
		<path fill="#936552" d="M696,191.2c-2-2.8,1.5-5.2,4.2-4.8s7,2.2,7,2.2s-0.5,3.2-5.8,4S696,191.2,696,191.2z"/>
		<path fill="#C68A4B" d="M720,193.5c1.3-3.1,2.1-6.1,2.6-8.8c-6.9,8.9-17.9,17.4-32.1,19.8c-13.9,2.4-28.3-8.5-33.6-13.1
			c1,5,3.6,9,9.8,13.1c10.2,6.8,16.2,9.8,24.5,10.8S715.2,205,720,193.5z"/>
	</g>
	<g>
		<path fill="#E0A966" d="M563.3,154.7c4.8-2.6,4.7-1,15-5c10.3-4,23.3,5.3,24.7,17.3s-5.3,20.7-11.3,25.3
			c-6,4.7-17.7,13.7-29.7,9.3c-12-4.3-14.7-17.7-12-27.7S556.7,158.3,563.3,154.7z"/>
		<path fill="#C68A4B" d="M603,167c-0.1-0.7-0.2-1.4-0.4-2.1c-0.4,7.1-4.2,15.5-9.3,18.4c-6.3,3.7-9,6.7-23.3,12
			c-8.9,3.3-15.1-0.1-18.5-3.1c2,4.1,5.4,7.6,10.5,9.4c12,4.3,23.7-4.7,29.7-9.3S604.3,179,603,167z"/>
		<g>
			<path fill="#936552" d="M576,165c-4-0.7-3.7-5.3-2.3-8c1.3-2.7,3.7-3,5-5.3c1.3-2.3,5.3,0.3,5.7,2.3c0.3,2-1.3,5.7-1.7,8
				C582.3,164.3,576,165,576,165z"/>
			<path fill="#936552" d="M562,178c-1.3-4-2.3-7-0.3-9.7c2-2.7,5,0,8.3,2.7s0.7,4.3-1,5S562.7,180,562,178z"/>
			<path fill="#744F3C" d="M578,185.3c-1.3-3-1.7-5.7,1-5.7s4.3,2.7,3.3,3.7S578,185.3,578,185.3z"/>
		</g>
	</g>
	<path fill="#C68A4B" d="M612,268.3c0,0,5-7.3,11.7-9.3c6.7-2,7-4.7,9-7s13.3-8.7,30.3-8.7s21.3,8,27.7,9c6.3,1,11.7,14.3,5,19.7
		c-6.7,5.3-27.7,8.7-34,9c-6.3,0.3-17.3,5-26.3,6s-21.3,0.3-24-3.7C608.7,279.3,609,272.7,612,268.3z"/>
	<path fill="#9B6633" d="M694.7,272.7c-9.6,2.3-25.1,3.3-33,3.6c-9,0.3-14,1.3-27.3,3.7c-10.4,1.8-20.2-5.1-24-8.2
		c-1.3,3.9-1,8.5,1,11.6c2.7,4,15,4.7,24,3.7s20-5.7,26.3-6C667.7,280.7,687.1,277.6,694.7,272.7z"/>
	<g>
		<path fill="#744F3C" d="M640.7,256.3c4-0.8,6.7-2,6-5.3c-0.7-3.3-3.3-6-6.7-6S637.3,257,640.7,256.3z"/>
		<path fill="#744F3C" d="M655.7,253.3c-3.3-2.3-2.7-2.7,0-6.7c2.7-4,3-6,7.7-7c4.7-1,10.3,2.7,8.7,7.7s-3,9.7-6.3,8.7
			C662.3,255,655.7,253.3,655.7,253.3z"/>
	</g>
	<g>
		<path fill="#E0A966" d="M652.3,322.3c7.2-3.7,9-10.7,23-10c14,0.7,27.7,7.3,34.7,19.3s4.7,40.3-20.3,47c-25,6.7-40.7-3-47-13.3
			C636.3,355,639.3,329,652.3,322.3z"/>
		<path fill="#C68A4B" d="M700.6,373.5c-3.1-0.1-7.3-0.3-12.2-0.5c-9-0.3-19.7,1-31.3-6c-8.9-5.3-14.7-17.8-16.9-23.5
			c-1.3,8.3-0.4,16.8,2.6,21.8c6.3,10.3,22,20,47,13.3C693.9,377.5,697.5,375.7,700.6,373.5z"/>
		<path fill="#936552" d="M674.7,350c0-4.4,1.7-5,6-5c4.3,0,11-1,8,1.7C685.7,349.3,674.7,355.7,674.7,350z"/>
		<path fill="#936552" d="M657.7,332.3c-0.2-4.1-1.3-5.7,1.7-7c3-1.3,7.3-1,10.3,3s3,8.3-1,9.7S658,338.3,657.7,332.3z"/>
		<path fill="#936552" d="M698.7,333.3c-0.6-4.3,2.3-7,6-4.3c3.7,2.7,4.3,6,0.7,7.7C701.7,338.3,699,335.7,698.7,333.3z"/>
		<path fill="#744F3C" d="M694,357.7c-5-2.3-4-3.3,0.3-6.7c4.3-3.3,9-0.3,10.7,2.3c1.7,2.7,0.3,7-4.3,8
			C696,362.3,694,357.7,694,357.7z"/>
	</g>
	<g>
		<path fill="#E0A966" d="M523,279.7c8.2-8.9,22-18.7,43.7-18.7c21.7,0,29.3,5.7,40,10.3c10.7,4.7,17.3,14,17.7,21.7
			c0.3,7.7-15,13.7-24,17s-23.3,6.3-33.7,3c-10.3-3.3-31.3-11-39.7-13S515.3,288,523,279.7z"/>
		<g>
			<path fill="#936552" d="M551.7,281.7c-2.9,3.6-8,10.3-2.7,13c5.3,2.7,12,4.3,16,7c4,2.7,5.7-3.7,7.7-9.3c2-5.7,0.7-11.3-5-14.7
				C562,274.3,555.7,276.7,551.7,281.7z"/>
			<path fill="#936552" d="M580.3,271.3c-0.4-4,2.7-5.7,7-2.7c4.3,3,4,7.7,0.3,8.3C584,277.7,580.7,274.3,580.3,271.3z"/>
			<path fill="#936552" d="M609,280.7c-5.6,1.1-5-0.7-5-6c0-5.3-0.7-8.3,5.3-9c6-0.7,6.3,2,7.3,6.3S619,278.7,609,280.7z"/>
		</g>
		<path fill="#C68A4B" d="M600.3,310c9-3.3,24.3-9.3,24-17c0-0.8-0.2-1.7-0.3-2.6c-11.7,8-34.5,17-45.7,17.2c-13,0.3-19-5-34-9.3
			c-11.6-3.3-19-13.7-21.8-18.2c-7.1,8.2-3.7,17.9,4.4,19.8c8.3,2,29.3,9.7,39.7,13C577,316.3,591.3,313.3,600.3,310z"/>
	</g>
	<g>
		<path fill="#E0A966" d="M493.7,257.7c1.9-6.1,12.7-16.3,21.3-18.7c8.7-2.3,17.7-2.7,24.3-1c6.7,1.7,17.7,10,17.3,23
			c-0.3,13-14.7,24.7-23.3,27.3c-8.7,2.7-21.7-0.3-28.7-1.7C497.7,285.3,489.3,271.3,493.7,257.7z"/>
		<path fill="#C68A4B" d="M556.7,260.4c-3.1,5-7.6,10.1-14,14.9c-9.3,7-17.7,8.3-31,6.7c-8.1-1-14.5-5.9-18.3-9.5
			c2,7.6,6.9,13.3,11.3,14.2c7,1.3,20,4.3,28.7,1.7c8.7-2.7,23-14.3,23.3-27.3C556.7,260.8,556.7,260.6,556.7,260.4z"/>
		<g>
			<path fill="#744F3C" d="M507.7,262c-4-2-3.7-5-0.7-7s7,1,7.3,2.7C514.7,259.3,509,262.7,507.7,262z"/>
			<path fill="#744F3C" d="M533,259c-3.6,0-2.3-6.7,0.3-8.3c2.7-1.7,5.3-6.7,7.7-5.3c2.3,1.3,0.3,7.7,0.3,9.3S534.7,259,533,259z"/>
		</g>
		<g>
			<path fill="#936552" d="M518,250.3c-3-2-3-2.7,0-6.3s2.7-7.7,5.3-7.3c2.7,0.3,8.7,4.3,7.7,8.3s-1.7,8.3-5.3,7.7
				C522,252,518,250.3,518,250.3z"/>
			<path fill="#936552" d="M514,277.3c-2.9-1.8-2.3-3.3,2.3-5.3c4.7-2,4.3,2.3,4.3,4.3S516.7,279,514,277.3z"/>
		</g>
	</g>
	<path fill="#C68A4B" d="M525,151c-6,2-4.7-4.7,2-10.7s13.3-10.7,18-6c4.7,4.7-3.3,15.3-8.7,16.7C531,152.3,525,151,525,151z"/>
	<g>
		<path fill="#E0A966" d="M432.3,251c2.5-9.9,7.3-19.3,18-20c10.7-0.7,19.3-0.7,28,6c8.7,6.7,9.3,29.3-4,38
			c-13.3,8.7-24,13.3-33.3,7.3S429,264.3,432.3,251z"/>
		<path fill="#C68A4B" d="M484.1,247.8c-1.9,2.3-3.8,5.4-4.4,9.2c-1.3,8-8.7,16-23.3,20c-8.4,2.3-16.1,1.1-21.2-0.4
			c1.5,2.2,3.5,4.2,5.8,5.7c9.3,6,20,1.3,33.3-7.3C483.2,269.2,485.9,257.2,484.1,247.8z"/>
		<path fill="#744F3C" d="M442.3,268.3c-2.3-2.7-1-5,1-6s4.3,3,4.3,6.3C447.7,272,442.3,268.3,442.3,268.3z"/>
		<g>
			<path fill="#936552" d="M436.3,257c-0.3-5.7-1.7-10.3,2.7-10.3s2.3,1.3,4.7,3.7c2.3,2.3,1.3,4.3-0.7,6.7
				C441,259.3,436.3,257,436.3,257z"/>
			<path fill="#936552" d="M453.3,259.7c-4-4-3-9.7,3-10.7s9.7,1,8,4.3C462.7,256.7,455,261.3,453.3,259.7z"/>
			<path fill="#936552" d="M459.7,238.7c-1.3-4.3-0.7-6.3,4-4.3c4.7,2,7,5.3,4,5.7S459.7,238.7,459.7,238.7z"/>
		</g>
	</g>
	<path fill="#9B6633" d="M316.3,219.7c-9.3-9.3-7.3-13.3-4-18c3.3-4.7,9.3,2.7,13.3,6.7s0.7,10.7-2.7,14
		C319.7,225.7,316.3,219.7,316.3,219.7z"/>
	<path fill="#F7D188" d="M486.3,217c-2-10-0.7-8,6-14.7c6.7-6.7,12.7-4,9.3,3.3c-3.3,7.3-7.3,16-12,19.3
		C485,228.3,486.3,217,486.3,217z"/>
	<path fill="#C68A4B" d="M479.7,192.3c-2-4.7,4-8,8.7-10c4.7-2,3.3,6,1.3,10S479.7,192.3,479.7,192.3z"/>
	<path fill="#C68A4B" d="M345.7,139.7c-5.7,5.7-12,12.7-4.7,11.3s20-4.7,16.7-12.7C354.3,130.3,350.3,135,345.7,139.7z"/>
	<path fill="#744F3C" d="M539.7,217c-6.7,2.7-8.7,4-4,7.3c4.7,3.3,18.7,5.3,16-0.7C549,217.7,539.7,217,539.7,217z"/>
</g>
</svg>
